<svg xmlns="http://www.w3.org/2000/svg" width="16" height="16" viewBox="0 0 16 16"><path d="m.821 2.182 1.061-1.06 13 13-1.061 1.06-2.44-2.44C10.438 13.512 9.26 14 8 14c-1.981 0-3.671-.992-4.933-2.078C1.797 10.83.88 9.576.43 8.898a1.62 1.62 0 0 1 0-1.798 14.864 14.864 0 0 1 2.096-2.506L.821 2.182Zm2.764 2.765a13.36 13.36 0 0 0-1.905 2.285.12.12 0 0 0 0 .136c.411.622 1.241 1.75 2.366 2.717C5.176 11.058 6.527 11.8 8 11.8a5.35 5.35 0 0 0 2.158-.48L8.62 9.782A2.5 2.5 0 0 1 5.218 6.38l-1.633-1.433Zm3.898.373A5.29 5.29 0 0 1 8 5.2c1.473 0 2.824.742 3.954 1.715 1.125.967 1.955 2.095 2.367 2.717a.12.12 0 0 1 0 .136 13.44 13.44 0 0 1-1.303 1.673l1.061 1.061a14.88 14.88 0 0 0 1.492-1.906 1.62 1.62 0 0 0 0-1.798c-.45-.678-1.367-1.932-2.637-3.023C11.67 2.992 9.981 2 8 2c-.76 0-1.488.148-2.168.397l1.651 1.461Z"/></svg>
